<svg xmlns="http://www.w3.org/2000/svg" xmlns:xlink="http://www.w3.org/1999/xlink" width="407" zoomAndPan="magnify" viewBox="0 0 305.25 197.249993" height="263" preserveAspectRatio="xMidYMid meet" version="1.0"><defs><g/></defs><g fill="#ff00ff" fill-opacity="1"><g transform="translate(99.944212, 155.21576)"><g><path d="M 17.5 -48 L 19.90625 -48 L 19.90625 0 L 17.5 0 Z M 12.703125 -48 L 15.09375 -48 L 15.09375 0 L 12.703125 0 Z M 7.90625 -48 L 10.296875 -48 L 10.296875 0 L 7.90625 0 Z M 3.09375 -48 L 5.5 -48 L 5.5 0 L 3.09375 0 Z M 3.09375 -48 "/></g></g></g><g fill="#ff00ff" fill-opacity="1"><g transform="translate(123.008619, 155.21576)"><g><path d="M 19.90625 0 L 17.5 0 L 17.5 -48 L 40.40625 -48 L 40.40625 -45.59375 L 19.90625 -45.59375 L 19.90625 -43.203125 L 40.40625 -43.203125 L 40.40625 -40.796875 L 19.90625 -40.796875 L 19.90625 -38.40625 L 40.40625 -38.40625 L 40.40625 -36 L 19.90625 -36 L 19.90625 -28.671875 L 38.796875 -28.671875 L 38.796875 -26.265625 L 19.90625 -26.265625 L 19.90625 -23.859375 L 38.796875 -23.859375 L 38.796875 -21.46875 L 19.90625 -21.46875 L 19.90625 -19.0625 L 38.796875 -19.0625 L 38.796875 -16.671875 L 19.90625 -16.671875 Z M 15.09375 0 L 12.703125 0 L 12.703125 -48 L 15.09375 -48 Z M 10.296875 0 L 7.90625 0 L 7.90625 -48 L 10.296875 -48 Z M 5.5 0 L 3.09375 0 L 3.09375 -48 L 5.5 -48 Z M 5.5 0 "/></g></g></g><g fill="#ff00ff" fill-opacity="1"><g transform="translate(165.704444, 155.21576)"><g><path d="M 46.671875 -48 L 49.0625 -48 L 33.96875 -16.203125 L 33.96875 0 L 31.5625 0 L 31.5625 -16.203125 Z M 41.859375 -48 L 44.265625 -48 L 29.171875 -16.203125 L 29.171875 0 L 26.765625 0 L 26.765625 -16.203125 Z M 37.0625 -48 L 39.46875 -48 L 24.359375 -16.203125 L 24.359375 0 L 21.96875 0 L 21.96875 -16.203125 Z M 32.265625 -48 L 34.671875 -48 L 19.5625 -16.203125 L 19.5625 0 L 17.171875 0 L 17.171875 -16.203125 L 1.0625 -48 L 3.46875 -48 L 18.328125 -18.640625 Z M 5.90625 -48 L 8.296875 -48 L 20.203125 -25.359375 L 19 -22.734375 Z M 10.703125 -48 L 13.140625 -48 L 22.59375 -30.640625 L 21.359375 -28 Z M 15.5625 -48 L 17.96875 -48 L 25 -35.859375 L 23.796875 -33.234375 Z M 15.5625 -48 "/></g></g></g><g fill="#00ffff" fill-opacity="1"><g transform="translate(97.384198, 155.21576)"><g><path d="M 17.5 -48 L 19.90625 -48 L 19.90625 0 L 17.5 0 Z M 12.703125 -48 L 15.09375 -48 L 15.09375 0 L 12.703125 0 Z M 7.90625 -48 L 10.296875 -48 L 10.296875 0 L 7.90625 0 Z M 3.09375 -48 L 5.5 -48 L 5.5 0 L 3.09375 0 Z M 3.09375 -48 "/></g></g></g><g fill="#00ffff" fill-opacity="1"><g transform="translate(120.448606, 155.21576)"><g><path d="M 19.90625 0 L 17.5 0 L 17.5 -48 L 40.40625 -48 L 40.40625 -45.59375 L 19.90625 -45.59375 L 19.90625 -43.203125 L 40.40625 -43.203125 L 40.40625 -40.796875 L 19.90625 -40.796875 L 19.90625 -38.40625 L 40.40625 -38.40625 L 40.40625 -36 L 19.90625 -36 L 19.90625 -28.671875 L 38.796875 -28.671875 L 38.796875 -26.265625 L 19.90625 -26.265625 L 19.90625 -23.859375 L 38.796875 -23.859375 L 38.796875 -21.46875 L 19.90625 -21.46875 L 19.90625 -19.0625 L 38.796875 -19.0625 L 38.796875 -16.671875 L 19.90625 -16.671875 Z M 15.09375 0 L 12.703125 0 L 12.703125 -48 L 15.09375 -48 Z M 10.296875 0 L 7.90625 0 L 7.90625 -48 L 10.296875 -48 Z M 5.5 0 L 3.09375 0 L 3.09375 -48 L 5.5 -48 Z M 5.5 0 "/></g></g></g><g fill="#00ffff" fill-opacity="1"><g transform="translate(163.144431, 155.21576)"><g><path d="M 46.671875 -48 L 49.0625 -48 L 33.96875 -16.203125 L 33.96875 0 L 31.5625 0 L 31.5625 -16.203125 Z M 41.859375 -48 L 44.265625 -48 L 29.171875 -16.203125 L 29.171875 0 L 26.765625 0 L 26.765625 -16.203125 Z M 37.0625 -48 L 39.46875 -48 L 24.359375 -16.203125 L 24.359375 0 L 21.96875 0 L 21.96875 -16.203125 Z M 32.265625 -48 L 34.671875 -48 L 19.5625 -16.203125 L 19.5625 0 L 17.171875 0 L 17.171875 -16.203125 L 1.0625 -48 L 3.46875 -48 L 18.328125 -18.640625 Z M 5.90625 -48 L 8.296875 -48 L 20.203125 -25.359375 L 19 -22.734375 Z M 10.703125 -48 L 13.140625 -48 L 22.59375 -30.640625 L 21.359375 -28 Z M 15.5625 -48 L 17.96875 -48 L 25 -35.859375 L 23.796875 -33.234375 Z M 15.5625 -48 "/></g></g></g><g fill="#9bd4e4" fill-opacity="1"><g transform="translate(98.664205, 155.21576)"><g><path d="M 17.5 -48 L 19.90625 -48 L 19.90625 0 L 17.5 0 Z M 12.703125 -48 L 15.09375 -48 L 15.09375 0 L 12.703125 0 Z M 7.90625 -48 L 10.296875 -48 L 10.296875 0 L 7.90625 0 Z M 3.09375 -48 L 5.5 -48 L 5.5 0 L 3.09375 0 Z M 3.09375 -48 "/></g></g></g><g fill="#9bd4e4" fill-opacity="1"><g transform="translate(121.728613, 155.21576)"><g><path d="M 19.90625 0 L 17.5 0 L 17.5 -48 L 40.40625 -48 L 40.40625 -45.59375 L 19.90625 -45.59375 L 19.90625 -43.203125 L 40.40625 -43.203125 L 40.40625 -40.796875 L 19.90625 -40.796875 L 19.90625 -38.40625 L 40.40625 -38.40625 L 40.40625 -36 L 19.90625 -36 L 19.90625 -28.671875 L 38.796875 -28.671875 L 38.796875 -26.265625 L 19.90625 -26.265625 L 19.90625 -23.859375 L 38.796875 -23.859375 L 38.796875 -21.46875 L 19.90625 -21.46875 L 19.90625 -19.0625 L 38.796875 -19.0625 L 38.796875 -16.671875 L 19.90625 -16.671875 Z M 15.09375 0 L 12.703125 0 L 12.703125 -48 L 15.09375 -48 Z M 10.296875 0 L 7.90625 0 L 7.90625 -48 L 10.296875 -48 Z M 5.5 0 L 3.09375 0 L 3.09375 -48 L 5.5 -48 Z M 5.5 0 "/></g></g></g><g fill="#9bd4e4" fill-opacity="1"><g transform="translate(164.424438, 155.21576)"><g><path d="M 46.671875 -48 L 49.0625 -48 L 33.96875 -16.203125 L 33.96875 0 L 31.5625 0 L 31.5625 -16.203125 Z M 41.859375 -48 L 44.265625 -48 L 29.171875 -16.203125 L 29.171875 0 L 26.765625 0 L 26.765625 -16.203125 Z M 37.0625 -48 L 39.46875 -48 L 24.359375 -16.203125 L 24.359375 0 L 21.96875 0 L 21.96875 -16.203125 Z M 32.265625 -48 L 34.671875 -48 L 19.5625 -16.203125 L 19.5625 0 L 17.171875 0 L 17.171875 -16.203125 L 1.0625 -48 L 3.46875 -48 L 18.328125 -18.640625 Z M 5.90625 -48 L 8.296875 -48 L 20.203125 -25.359375 L 19 -22.734375 Z M 10.703125 -48 L 13.140625 -48 L 22.59375 -30.640625 L 21.359375 -28 Z M 15.5625 -48 L 17.96875 -48 L 25 -35.859375 L 23.796875 -33.234375 Z M 15.5625 -48 "/></g></g></g><g fill="#441f62" fill-opacity="0.702"><g transform="translate(45.208891, 107.552871)"><g><path d="M 6.8125 -47.671875 C 12.613281 -51.648438 19.222656 -54.800781 26.640625 -57.125 C 34.054688 -59.457031 40.179688 -60.625 45.015625 -60.625 C 49.859375 -60.625 53.757812 -60.097656 56.71875 -59.046875 C 59.6875 -58.003906 61.828125 -56.675781 63.140625 -55.0625 C 65.347656 -52.3125 66.453125 -49.921875 66.453125 -47.890625 C 66.453125 -45.441406 64.75 -42.570312 61.34375 -39.28125 C 59.613281 -37.601562 57.160156 -35.75 53.984375 -33.71875 L 53 -33.1875 C 52.582031 -33.0625 52.375 -32.878906 52.375 -32.640625 L 52.921875 -32.203125 C 55.242188 -31.242188 57.019531 -30.101562 58.25 -28.78125 C 59.476562 -27.46875 60.09375 -25.523438 60.09375 -22.953125 C 60.09375 -19.429688 58.519531 -16.070312 55.375 -12.875 C 52.238281 -9.675781 48.546875 -7.101562 44.296875 -5.15625 C 40.054688 -3.21875 36.082031 -1.675781 32.375 -0.53125 C 28.664062 0.601562 26.019531 1.171875 24.4375 1.171875 C 22.851562 1.171875 21.429688 0.972656 20.171875 0.578125 C 18.921875 0.191406 17.90625 -0.269531 17.125 -0.8125 C 15.507812 -1.945312 14.375 -3.113281 13.71875 -4.3125 C 13.476562 -4.601562 13.269531 -4.75 13.09375 -4.75 C 12.675781 -4.75 11.898438 -3.429688 10.765625 -0.796875 C 9.628906 1.828125 9.03125 3.140625 8.96875 3.140625 L 8.96875 3.046875 C 8.789062 3.648438 8.492188 3.953125 8.078125 3.953125 C 7.117188 3.953125 6.203125 3.066406 5.328125 1.296875 C 4.460938 -0.460938 4.03125 -1.835938 4.03125 -2.828125 C 4.03125 -3.816406 4.628906 -5.488281 5.828125 -7.84375 C 7.023438 -10.207031 8.222656 -12.226562 9.421875 -13.90625 L 11.21875 -16.40625 C 12.59375 -19.394531 18.269531 -25.644531 28.25 -35.15625 C 38.238281 -44.664062 43.890625 -49.421875 45.203125 -49.421875 C 45.796875 -49.421875 46.285156 -49.222656 46.671875 -48.828125 C 47.066406 -48.441406 47.382812 -47.863281 47.625 -47.09375 C 47.625 -46.613281 47.351562 -46.222656 46.8125 -45.921875 L 34.171875 -32.28125 C 34.046875 -32.039062 33.984375 -31.875 33.984375 -31.78125 C 33.984375 -31.695312 34.078125 -31.65625 34.265625 -31.65625 C 35.578125 -31.65625 38.5625 -32.671875 43.21875 -34.703125 C 47.882812 -36.742188 52.414062 -39.226562 56.8125 -42.15625 C 61.207031 -45.082031 63.40625 -47.503906 63.40625 -49.421875 C 63.40625 -51.515625 59.222656 -52.5625 50.859375 -52.5625 C 45.535156 -52.5625 40.285156 -51.976562 35.109375 -50.8125 C 29.941406 -49.644531 25.519531 -48.238281 21.84375 -46.59375 C 18.164062 -44.945312 14.859375 -43.226562 11.921875 -41.4375 C 8.992188 -39.644531 6.8125 -38.085938 5.375 -36.765625 C 3.945312 -35.453125 3.234375 -34.613281 3.234375 -34.25 C 3.234375 -33.894531 3.378906 -33.71875 3.671875 -33.71875 C 5.585938 -33.71875 8.742188 -34.75 13.140625 -36.8125 C 17.535156 -38.875 20.207031 -40.25 21.15625 -40.9375 C 22.113281 -41.625 22.726562 -41.96875 23 -41.96875 C 23.269531 -41.96875 23.492188 -41.820312 23.671875 -41.53125 C 21.460938 -37.875 18.429688 -34.773438 14.578125 -32.234375 C 10.722656 -29.703125 7.71875 -28.4375 5.5625 -28.4375 C 3.40625 -28.4375 1.625 -29.316406 0.21875 -31.078125 C -1.1875 -32.835938 -1.890625 -34.378906 -1.890625 -35.703125 C -1.890625 -39.703125 1.007812 -43.691406 6.8125 -47.671875 Z M 55.703125 -26.453125 C 55.703125 -27.054688 55.328125 -27.535156 54.578125 -27.890625 C 53.828125 -28.253906 53.0625 -28.460938 52.28125 -28.515625 L 51.125 -28.515625 C 47.351562 -28.515625 42.566406 -27.679688 36.765625 -26.015625 C 34.796875 -25.472656 33.570312 -25.203125 33.09375 -25.203125 C 32.613281 -25.203125 32.207031 -25.378906 31.875 -25.734375 C 31.550781 -26.097656 31.3125 -26.441406 31.15625 -26.765625 C 31.007812 -27.097656 30.789062 -27.265625 30.5 -27.265625 C 30.132812 -27.265625 29.742188 -27.054688 29.328125 -26.640625 L 13.8125 -5.921875 L 13.8125 -5.828125 C 14.113281 -5.285156 14.710938 -5.015625 15.609375 -5.015625 L 16.6875 -5.015625 C 21.164062 -5.015625 26.515625 -6.253906 32.734375 -8.734375 C 38.953125 -11.222656 44.332031 -14.1875 48.875 -17.625 C 53.425781 -21.0625 55.703125 -24.003906 55.703125 -26.453125 Z M 55.703125 -26.453125 "/></g></g></g><g fill="#441f62" fill-opacity="0.702"><g transform="translate(107.171388, 107.552871)"><g><path d="M 3.3125 -16.765625 C 6.601562 -19.046875 10.039062 -21.5 13.625 -24.125 C 11.71875 -25.4375 10.492188 -26.722656 9.953125 -27.984375 C 9.773438 -28.398438 9.6875 -28.695312 9.6875 -28.875 C 9.6875 -30.070312 10.070312 -30.863281 10.84375 -31.25 C 11.625 -31.644531 12.882812 -31.84375 14.625 -31.84375 C 15.28125 -31.84375 17.222656 -31.035156 20.453125 -29.421875 C 23.679688 -27.804688 25.726562 -27 26.59375 -27 C 27.457031 -27 28.664062 -27.25 30.21875 -27.75 C 31.78125 -28.257812 33.023438 -28.515625 33.953125 -28.515625 C 34.878906 -28.515625 35.550781 -28.304688 35.96875 -27.890625 C 37.457031 -25.921875 38.203125 -24.722656 38.203125 -24.296875 C 38.203125 -23.878906 38.007812 -23.535156 37.625 -23.265625 C 37.238281 -23.003906 36.015625 -22.15625 33.953125 -20.71875 C 31.890625 -19.28125 29.867188 -17.8125 27.890625 -16.3125 C 25.921875 -14.820312 24.066406 -13.148438 22.328125 -11.296875 C 20.597656 -9.441406 19.734375 -7.945312 19.734375 -6.8125 C 19.734375 -6.632812 19.882812 -6.546875 20.1875 -6.546875 C 23.40625 -6.546875 34.285156 -13.09375 52.828125 -26.1875 C 53.242188 -26.1875 53.453125 -25.8125 53.453125 -25.0625 C 53.453125 -24.320312 51.085938 -21.753906 46.359375 -17.359375 C 41.640625 -12.960938 36.304688 -8.65625 30.359375 -4.4375 C 24.410156 -0.21875 20.09375 1.890625 17.40625 1.890625 C 13.21875 1.890625 11.125 -0.203125 11.125 -4.390625 C 11.125 -6.660156 11.882812 -8.859375 13.40625 -10.984375 C 14.9375 -13.109375 18.148438 -15.960938 23.046875 -19.546875 C 22.035156 -19.546875 20.660156 -19.800781 18.921875 -20.3125 C 17.191406 -20.820312 16.085938 -21.4375 15.609375 -22.15625 C 14.054688 -20.78125 11.363281 -18.476562 7.53125 -15.25 C 6.632812 -14.59375 5.46875 -14.265625 4.03125 -14.265625 C 2.601562 -14.265625 1.890625 -14.488281 1.890625 -14.9375 C 1.890625 -15.382812 2.363281 -15.992188 3.3125 -16.765625 Z M 3.3125 -16.765625 "/></g></g></g><g fill="#441f62" fill-opacity="0.702"><g transform="translate(144.384755, 107.552871)"><g><path d="M 15.96875 -3.765625 L 16.6875 -9.5 C 16.6875 -9.6875 16.640625 -9.78125 16.546875 -9.78125 C 16.453125 -9.78125 16.285156 -9.660156 16.046875 -9.421875 C 15.273438 -8.578125 14.289062 -7.539062 13.09375 -6.3125 C 11.894531 -5.09375 9.84375 -3.453125 6.9375 -1.390625 C 4.039062 0.671875 1.695312 1.703125 -0.09375 1.703125 C -0.382812 1.640625 -0.753906 1.535156 -1.203125 1.390625 C -1.660156 1.242188 -2.242188 0.753906 -2.953125 -0.078125 C -3.671875 -0.921875 -4.03125 -2.117188 -4.03125 -3.671875 C -4.03125 -5.234375 -2.847656 -7.613281 -0.484375 -10.8125 C 1.867188 -14.007812 4.691406 -17.144531 7.984375 -20.21875 C 11.273438 -23.300781 14.9375 -25.976562 18.96875 -28.25 C 23 -30.519531 26.507812 -31.65625 29.5 -31.65625 C 30.644531 -31.59375 31.546875 -30.785156 32.203125 -29.234375 C 32.796875 -29.835938 33.332031 -30.140625 33.8125 -30.140625 C 34.289062 -30.140625 34.859375 -29.78125 35.515625 -29.0625 C 35.867188 -29 36.222656 -28.800781 36.578125 -28.46875 C 36.941406 -28.144531 37.125 -27.679688 37.125 -27.078125 C 37.125 -26.484375 36.707031 -25.828125 35.875 -25.109375 C 34.613281 -23.554688 33.144531 -21.789062 31.46875 -19.8125 C 29.800781 -17.84375 28.609375 -16.425781 27.890625 -15.5625 C 27.171875 -14.695312 26.425781 -13.722656 25.65625 -12.640625 C 24.332031 -10.785156 23.613281 -9.289062 23.5 -8.15625 C 29.59375 -11.09375 39.1875 -17.398438 52.28125 -27.078125 C 52.820312 -26.660156 53.09375 -26.15625 53.09375 -25.5625 C 53.09375 -24.96875 52.851562 -24.457031 52.375 -24.03125 C 51.894531 -23.613281 51.3125 -23.101562 50.625 -22.5 C 49.9375 -21.90625 48.578125 -20.738281 46.546875 -19 C 44.515625 -17.269531 42.554688 -15.613281 40.671875 -14.03125 C 38.785156 -12.445312 36.628906 -10.679688 34.203125 -8.734375 C 31.785156 -6.796875 29.625 -5.140625 27.71875 -3.765625 C 23.113281 -0.472656 20.242188 1.171875 19.109375 1.171875 C 17.972656 1.171875 17.164062 0.8125 16.6875 0.09375 C 16.207031 -0.625 15.96875 -1.910156 15.96875 -3.765625 Z M 6.8125 -7.53125 C 7.53125 -7.53125 9.726562 -8.992188 13.40625 -11.921875 C 17.082031 -14.859375 20.566406 -17.789062 23.859375 -20.71875 L 28.875 -25.109375 C 29.113281 -25.347656 29.234375 -25.507812 29.234375 -25.59375 C 29.234375 -25.6875 29.144531 -25.734375 28.96875 -25.734375 C 26.695312 -25.734375 23.738281 -24.429688 20.09375 -21.828125 C 16.445312 -19.234375 13.289062 -16.484375 10.625 -13.578125 C 7.96875 -10.679688 6.640625 -8.726562 6.640625 -7.71875 C 6.640625 -7.59375 6.695312 -7.53125 6.8125 -7.53125 Z M 6.8125 -7.53125 "/></g></g></g><g fill="#441f62" fill-opacity="0.702"><g transform="translate(179.356349, 107.552871)"><g><path d="M 19.640625 -29.6875 C 20.117188 -29.6875 20.910156 -29.445312 22.015625 -28.96875 C 23.117188 -28.488281 23.671875 -27.953125 23.671875 -27.359375 C 23.671875 -26.941406 23.523438 -26.519531 23.234375 -26.09375 L 16.5 -16.765625 C 15.726562 -15.816406 15.34375 -15.28125 15.34375 -15.15625 C 15.34375 -15.039062 15.367188 -14.984375 15.421875 -14.984375 L 15.875 -15.25 C 22.8125 -20.09375 28.519531 -24.335938 33 -27.984375 C 33.84375 -28.578125 34.546875 -28.875 35.109375 -28.875 C 35.679688 -28.875 36.054688 -28.816406 36.234375 -28.703125 L 38.75 -27.984375 C 39.34375 -27.679688 39.640625 -27.289062 39.640625 -26.8125 C 39.640625 -26.332031 39.519531 -25.945312 39.28125 -25.65625 C 38.144531 -24.394531 36.84375 -22.972656 35.375 -21.390625 C 33.914062 -19.804688 32.828125 -18.609375 32.109375 -17.796875 C 31.390625 -16.992188 30.582031 -16.082031 29.6875 -15.0625 C 28.789062 -14.050781 28.144531 -13.273438 27.75 -12.734375 C 27.363281 -12.191406 26.929688 -11.578125 26.453125 -10.890625 C 25.972656 -10.203125 25.644531 -9.617188 25.46875 -9.140625 C 25.113281 -7.765625 24.9375 -6.570312 24.9375 -5.5625 C 24.9375 -5.019531 25.28125 -4.75 25.96875 -4.75 C 26.65625 -4.75 27.910156 -5.164062 29.734375 -6 C 31.554688 -6.84375 33.738281 -8.128906 36.28125 -9.859375 C 38.820312 -11.597656 42.195312 -14.066406 46.40625 -17.265625 C 50.625 -20.460938 54.316406 -23.164062 57.484375 -25.375 C 58.023438 -24.957031 58.296875 -24.445312 58.296875 -23.84375 C 58.296875 -23.25 58.023438 -22.71875 57.484375 -22.25 C 55.578125 -20.394531 53.15625 -18.078125 50.21875 -15.296875 C 47.289062 -12.515625 42.820312 -8.789062 36.8125 -4.125 C 30.800781 0.539062 26.601562 2.875 24.21875 2.875 C 19.613281 2.875 17.3125 0.421875 17.3125 -4.484375 C 17.3125 -6.335938 18.03125 -8.28125 19.46875 -10.3125 L 23.3125 -15.609375 C 23.675781 -16.140625 23.859375 -16.453125 23.859375 -16.546875 C 23.859375 -16.640625 23.675781 -16.535156 23.3125 -16.234375 C 12.914062 -7.566406 6.28125 -2.484375 3.40625 -0.984375 C 2.925781 -0.679688 2.328125 -0.53125 1.609375 -0.53125 C -0.359375 -0.53125 -1.34375 -1.429688 -1.34375 -3.234375 C -1.34375 -3.828125 -1.191406 -4.363281 -0.890625 -4.84375 C 3.523438 -8.90625 6.632812 -12.222656 8.4375 -14.796875 C 9.863281 -16.234375 11.367188 -18.238281 12.953125 -20.8125 C 14.546875 -23.382812 15.894531 -25.503906 17 -27.171875 C 18.101562 -28.847656 18.984375 -29.6875 19.640625 -29.6875 Z M 19.640625 -29.6875 "/></g></g></g><g fill="#441f62" fill-opacity="0.702"><g transform="translate(220.604895, 107.552871)"><g><path d="M 7.078125 -7.53125 C 7.796875 -7.53125 9.992188 -8.992188 13.671875 -11.921875 C 17.347656 -14.859375 20.863281 -17.789062 24.21875 -20.71875 L 29.15625 -25.109375 C 29.382812 -25.347656 29.5 -25.507812 29.5 -25.59375 C 29.5 -25.6875 29.410156 -25.734375 29.234375 -25.734375 C 26.960938 -25.734375 24.003906 -24.429688 20.359375 -21.828125 C 16.710938 -19.234375 13.554688 -16.484375 10.890625 -13.578125 C 8.234375 -10.679688 6.90625 -8.726562 6.90625 -7.71875 C 6.90625 -7.59375 6.960938 -7.53125 7.078125 -7.53125 Z M 22.59375 -6.1875 C 22.59375 -6.007812 22.785156 -5.921875 23.171875 -5.921875 C 23.566406 -5.921875 25.320312 -6.816406 28.4375 -8.609375 C 36.5625 -13.210938 46.125 -19.367188 57.125 -27.078125 C 57.664062 -26.660156 57.9375 -26.15625 57.9375 -25.5625 C 57.9375 -24.96875 57.632812 -24.398438 57.03125 -23.859375 C 56.4375 -23.316406 55.585938 -22.535156 54.484375 -21.515625 C 53.378906 -20.503906 51.269531 -18.679688 48.15625 -16.046875 C 45.050781 -13.421875 42.15625 -11.03125 39.46875 -8.875 C 32.40625 -3.195312 27.203125 0.148438 23.859375 1.171875 C 22.785156 1.460938 21.617188 1.609375 20.359375 1.609375 C 19.160156 1.429688 18.066406 0.984375 17.078125 0.265625 C 16.097656 -0.453125 15.609375 -1.285156 15.609375 -2.234375 C 15.609375 -3.191406 15.832031 -4.613281 16.28125 -6.5 C 16.726562 -8.382812 16.953125 -9.398438 16.953125 -9.546875 C 16.953125 -9.703125 16.90625 -9.78125 16.8125 -9.78125 C 16.726562 -9.78125 16.566406 -9.660156 16.328125 -9.421875 C 15.546875 -8.578125 14.554688 -7.539062 13.359375 -6.3125 C 12.160156 -5.09375 10.113281 -3.453125 7.21875 -1.390625 C 4.320312 0.671875 1.972656 1.703125 0.171875 1.703125 C -0.117188 1.640625 -0.488281 1.535156 -0.9375 1.390625 C -1.382812 1.242188 -1.96875 0.753906 -2.6875 -0.078125 C -3.40625 -0.921875 -3.765625 -2.117188 -3.765625 -3.671875 C -3.765625 -5.234375 -2.597656 -7.613281 -0.265625 -10.8125 C 2.066406 -14.007812 4.90625 -17.144531 8.25 -20.21875 C 11.601562 -23.300781 15.28125 -25.976562 19.28125 -28.25 C 23.289062 -30.519531 26.789062 -31.65625 29.78125 -31.65625 C 30.851562 -31.65625 31.75 -30.847656 32.46875 -29.234375 C 32.40625 -29.648438 34.347656 -32.351562 38.296875 -37.34375 C 42.242188 -42.34375 46.921875 -47.367188 52.328125 -52.421875 C 57.742188 -57.472656 61.945312 -60 64.9375 -60 C 65.945312 -60 66.453125 -59.519531 66.453125 -58.5625 C 66.453125 -57.070312 65.453125 -55.039062 63.453125 -52.46875 C 61.453125 -49.894531 59.300781 -47.5 57 -45.28125 C 54.695312 -43.070312 51.722656 -40.296875 48.078125 -36.953125 C 39.640625 -29.296875 33.28125 -22.773438 29 -17.390625 C 24.726562 -12.015625 22.59375 -8.28125 22.59375 -6.1875 Z M 22.59375 -6.1875 "/></g></g></g><g fill="#eb219b" fill-opacity="1"><g transform="translate(43.623453, 105.967432)"><g><path d="M 6.8125 -47.671875 C 12.613281 -51.648438 19.222656 -54.800781 26.640625 -57.125 C 34.054688 -59.457031 40.179688 -60.625 45.015625 -60.625 C 49.859375 -60.625 53.757812 -60.097656 56.71875 -59.046875 C 59.6875 -58.003906 61.828125 -56.675781 63.140625 -55.0625 C 65.347656 -52.3125 66.453125 -49.921875 66.453125 -47.890625 C 66.453125 -45.441406 64.75 -42.570312 61.34375 -39.28125 C 59.613281 -37.601562 57.160156 -35.75 53.984375 -33.71875 L 53 -33.1875 C 52.582031 -33.0625 52.375 -32.878906 52.375 -32.640625 L 52.921875 -32.203125 C 55.242188 -31.242188 57.019531 -30.101562 58.25 -28.78125 C 59.476562 -27.46875 60.09375 -25.523438 60.09375 -22.953125 C 60.09375 -19.429688 58.519531 -16.070312 55.375 -12.875 C 52.238281 -9.675781 48.546875 -7.101562 44.296875 -5.15625 C 40.054688 -3.21875 36.082031 -1.675781 32.375 -0.53125 C 28.664062 0.601562 26.019531 1.171875 24.4375 1.171875 C 22.851562 1.171875 21.429688 0.972656 20.171875 0.578125 C 18.921875 0.191406 17.90625 -0.269531 17.125 -0.8125 C 15.507812 -1.945312 14.375 -3.113281 13.71875 -4.3125 C 13.476562 -4.601562 13.269531 -4.75 13.09375 -4.75 C 12.675781 -4.75 11.898438 -3.429688 10.765625 -0.796875 C 9.628906 1.828125 9.03125 3.140625 8.96875 3.140625 L 8.96875 3.046875 C 8.789062 3.648438 8.492188 3.953125 8.078125 3.953125 C 7.117188 3.953125 6.203125 3.066406 5.328125 1.296875 C 4.460938 -0.460938 4.03125 -1.835938 4.03125 -2.828125 C 4.03125 -3.816406 4.628906 -5.488281 5.828125 -7.84375 C 7.023438 -10.207031 8.222656 -12.226562 9.421875 -13.90625 L 11.21875 -16.40625 C 12.59375 -19.394531 18.269531 -25.644531 28.25 -35.15625 C 38.238281 -44.664062 43.890625 -49.421875 45.203125 -49.421875 C 45.796875 -49.421875 46.285156 -49.222656 46.671875 -48.828125 C 47.066406 -48.441406 47.382812 -47.863281 47.625 -47.09375 C 47.625 -46.613281 47.351562 -46.222656 46.8125 -45.921875 L 34.171875 -32.28125 C 34.046875 -32.039062 33.984375 -31.875 33.984375 -31.78125 C 33.984375 -31.695312 34.078125 -31.65625 34.265625 -31.65625 C 35.578125 -31.65625 38.5625 -32.671875 43.21875 -34.703125 C 47.882812 -36.742188 52.414062 -39.226562 56.8125 -42.15625 C 61.207031 -45.082031 63.40625 -47.503906 63.40625 -49.421875 C 63.40625 -51.515625 59.222656 -52.5625 50.859375 -52.5625 C 45.535156 -52.5625 40.285156 -51.976562 35.109375 -50.8125 C 29.941406 -49.644531 25.519531 -48.238281 21.84375 -46.59375 C 18.164062 -44.945312 14.859375 -43.226562 11.921875 -41.4375 C 8.992188 -39.644531 6.8125 -38.085938 5.375 -36.765625 C 3.945312 -35.453125 3.234375 -34.613281 3.234375 -34.25 C 3.234375 -33.894531 3.378906 -33.71875 3.671875 -33.71875 C 5.585938 -33.71875 8.742188 -34.75 13.140625 -36.8125 C 17.535156 -38.875 20.207031 -40.25 21.15625 -40.9375 C 22.113281 -41.625 22.726562 -41.96875 23 -41.96875 C 23.269531 -41.96875 23.492188 -41.820312 23.671875 -41.53125 C 21.460938 -37.875 18.429688 -34.773438 14.578125 -32.234375 C 10.722656 -29.703125 7.71875 -28.4375 5.5625 -28.4375 C 3.40625 -28.4375 1.625 -29.316406 0.21875 -31.078125 C -1.1875 -32.835938 -1.890625 -34.378906 -1.890625 -35.703125 C -1.890625 -39.703125 1.007812 -43.691406 6.8125 -47.671875 Z M 55.703125 -26.453125 C 55.703125 -27.054688 55.328125 -27.535156 54.578125 -27.890625 C 53.828125 -28.253906 53.0625 -28.460938 52.28125 -28.515625 L 51.125 -28.515625 C 47.351562 -28.515625 42.566406 -27.679688 36.765625 -26.015625 C 34.796875 -25.472656 33.570312 -25.203125 33.09375 -25.203125 C 32.613281 -25.203125 32.207031 -25.378906 31.875 -25.734375 C 31.550781 -26.097656 31.3125 -26.441406 31.15625 -26.765625 C 31.007812 -27.097656 30.789062 -27.265625 30.5 -27.265625 C 30.132812 -27.265625 29.742188 -27.054688 29.328125 -26.640625 L 13.8125 -5.921875 L 13.8125 -5.828125 C 14.113281 -5.285156 14.710938 -5.015625 15.609375 -5.015625 L 16.6875 -5.015625 C 21.164062 -5.015625 26.515625 -6.253906 32.734375 -8.734375 C 38.953125 -11.222656 44.332031 -14.1875 48.875 -17.625 C 53.425781 -21.0625 55.703125 -24.003906 55.703125 -26.453125 Z M 55.703125 -26.453125 "/></g></g></g><g fill="#eb219b" fill-opacity="1"><g transform="translate(105.58595, 105.967432)"><g><path d="M 3.3125 -16.765625 C 6.601562 -19.046875 10.039062 -21.5 13.625 -24.125 C 11.71875 -25.4375 10.492188 -26.722656 9.953125 -27.984375 C 9.773438 -28.398438 9.6875 -28.695312 9.6875 -28.875 C 9.6875 -30.070312 10.070312 -30.863281 10.84375 -31.25 C 11.625 -31.644531 12.882812 -31.84375 14.625 -31.84375 C 15.28125 -31.84375 17.222656 -31.035156 20.453125 -29.421875 C 23.679688 -27.804688 25.726562 -27 26.59375 -27 C 27.457031 -27 28.664062 -27.25 30.21875 -27.75 C 31.78125 -28.257812 33.023438 -28.515625 33.953125 -28.515625 C 34.878906 -28.515625 35.550781 -28.304688 35.96875 -27.890625 C 37.457031 -25.921875 38.203125 -24.722656 38.203125 -24.296875 C 38.203125 -23.878906 38.007812 -23.535156 37.625 -23.265625 C 37.238281 -23.003906 36.015625 -22.15625 33.953125 -20.71875 C 31.890625 -19.28125 29.867188 -17.8125 27.890625 -16.3125 C 25.921875 -14.820312 24.066406 -13.148438 22.328125 -11.296875 C 20.597656 -9.441406 19.734375 -7.945312 19.734375 -6.8125 C 19.734375 -6.632812 19.882812 -6.546875 20.1875 -6.546875 C 23.40625 -6.546875 34.285156 -13.09375 52.828125 -26.1875 C 53.242188 -26.1875 53.453125 -25.8125 53.453125 -25.0625 C 53.453125 -24.320312 51.085938 -21.753906 46.359375 -17.359375 C 41.640625 -12.960938 36.304688 -8.65625 30.359375 -4.4375 C 24.410156 -0.21875 20.09375 1.890625 17.40625 1.890625 C 13.21875 1.890625 11.125 -0.203125 11.125 -4.390625 C 11.125 -6.660156 11.882812 -8.859375 13.40625 -10.984375 C 14.9375 -13.109375 18.148438 -15.960938 23.046875 -19.546875 C 22.035156 -19.546875 20.660156 -19.800781 18.921875 -20.3125 C 17.191406 -20.820312 16.085938 -21.4375 15.609375 -22.15625 C 14.054688 -20.78125 11.363281 -18.476562 7.53125 -15.25 C 6.632812 -14.59375 5.46875 -14.265625 4.03125 -14.265625 C 2.601562 -14.265625 1.890625 -14.488281 1.890625 -14.9375 C 1.890625 -15.382812 2.363281 -15.992188 3.3125 -16.765625 Z M 3.3125 -16.765625 "/></g></g></g><g fill="#eb219b" fill-opacity="1"><g transform="translate(142.799317, 105.967432)"><g><path d="M 15.96875 -3.765625 L 16.6875 -9.5 C 16.6875 -9.6875 16.640625 -9.78125 16.546875 -9.78125 C 16.453125 -9.78125 16.285156 -9.660156 16.046875 -9.421875 C 15.273438 -8.578125 14.289062 -7.539062 13.09375 -6.3125 C 11.894531 -5.09375 9.84375 -3.453125 6.9375 -1.390625 C 4.039062 0.671875 1.695312 1.703125 -0.09375 1.703125 C -0.382812 1.640625 -0.753906 1.535156 -1.203125 1.390625 C -1.660156 1.242188 -2.242188 0.753906 -2.953125 -0.078125 C -3.671875 -0.921875 -4.03125 -2.117188 -4.03125 -3.671875 C -4.03125 -5.234375 -2.847656 -7.613281 -0.484375 -10.8125 C 1.867188 -14.007812 4.691406 -17.144531 7.984375 -20.21875 C 11.273438 -23.300781 14.9375 -25.976562 18.96875 -28.25 C 23 -30.519531 26.507812 -31.65625 29.5 -31.65625 C 30.644531 -31.59375 31.546875 -30.785156 32.203125 -29.234375 C 32.796875 -29.835938 33.332031 -30.140625 33.8125 -30.140625 C 34.289062 -30.140625 34.859375 -29.78125 35.515625 -29.0625 C 35.867188 -29 36.222656 -28.800781 36.578125 -28.46875 C 36.941406 -28.144531 37.125 -27.679688 37.125 -27.078125 C 37.125 -26.484375 36.707031 -25.828125 35.875 -25.109375 C 34.613281 -23.554688 33.144531 -21.789062 31.46875 -19.8125 C 29.800781 -17.84375 28.609375 -16.425781 27.890625 -15.5625 C 27.171875 -14.695312 26.425781 -13.722656 25.65625 -12.640625 C 24.332031 -10.785156 23.613281 -9.289062 23.5 -8.15625 C 29.59375 -11.09375 39.1875 -17.398438 52.28125 -27.078125 C 52.820312 -26.660156 53.09375 -26.15625 53.09375 -25.5625 C 53.09375 -24.96875 52.851562 -24.457031 52.375 -24.03125 C 51.894531 -23.613281 51.3125 -23.101562 50.625 -22.5 C 49.9375 -21.90625 48.578125 -20.738281 46.546875 -19 C 44.515625 -17.269531 42.554688 -15.613281 40.671875 -14.03125 C 38.785156 -12.445312 36.628906 -10.679688 34.203125 -8.734375 C 31.785156 -6.796875 29.625 -5.140625 27.71875 -3.765625 C 23.113281 -0.472656 20.242188 1.171875 19.109375 1.171875 C 17.972656 1.171875 17.164062 0.8125 16.6875 0.09375 C 16.207031 -0.625 15.96875 -1.910156 15.96875 -3.765625 Z M 6.8125 -7.53125 C 7.53125 -7.53125 9.726562 -8.992188 13.40625 -11.921875 C 17.082031 -14.859375 20.566406 -17.789062 23.859375 -20.71875 L 28.875 -25.109375 C 29.113281 -25.347656 29.234375 -25.507812 29.234375 -25.59375 C 29.234375 -25.6875 29.144531 -25.734375 28.96875 -25.734375 C 26.695312 -25.734375 23.738281 -24.429688 20.09375 -21.828125 C 16.445312 -19.234375 13.289062 -16.484375 10.625 -13.578125 C 7.96875 -10.679688 6.640625 -8.726562 6.640625 -7.71875 C 6.640625 -7.59375 6.695312 -7.53125 6.8125 -7.53125 Z M 6.8125 -7.53125 "/></g></g></g><g fill="#eb219b" fill-opacity="1"><g transform="translate(177.770911, 105.967432)"><g><path d="M 19.640625 -29.6875 C 20.117188 -29.6875 20.910156 -29.445312 22.015625 -28.96875 C 23.117188 -28.488281 23.671875 -27.953125 23.671875 -27.359375 C 23.671875 -26.941406 23.523438 -26.519531 23.234375 -26.09375 L 16.5 -16.765625 C 15.726562 -15.816406 15.34375 -15.28125 15.34375 -15.15625 C 15.34375 -15.039062 15.367188 -14.984375 15.421875 -14.984375 L 15.875 -15.25 C 22.8125 -20.09375 28.519531 -24.335938 33 -27.984375 C 33.84375 -28.578125 34.546875 -28.875 35.109375 -28.875 C 35.679688 -28.875 36.054688 -28.816406 36.234375 -28.703125 L 38.75 -27.984375 C 39.34375 -27.679688 39.640625 -27.289062 39.640625 -26.8125 C 39.640625 -26.332031 39.519531 -25.945312 39.28125 -25.65625 C 38.144531 -24.394531 36.84375 -22.972656 35.375 -21.390625 C 33.914062 -19.804688 32.828125 -18.609375 32.109375 -17.796875 C 31.390625 -16.992188 30.582031 -16.082031 29.6875 -15.0625 C 28.789062 -14.050781 28.144531 -13.273438 27.75 -12.734375 C 27.363281 -12.191406 26.929688 -11.578125 26.453125 -10.890625 C 25.972656 -10.203125 25.644531 -9.617188 25.46875 -9.140625 C 25.113281 -7.765625 24.9375 -6.570312 24.9375 -5.5625 C 24.9375 -5.019531 25.28125 -4.75 25.96875 -4.75 C 26.65625 -4.75 27.910156 -5.164062 29.734375 -6 C 31.554688 -6.84375 33.738281 -8.128906 36.28125 -9.859375 C 38.820312 -11.597656 42.195312 -14.066406 46.40625 -17.265625 C 50.625 -20.460938 54.316406 -23.164062 57.484375 -25.375 C 58.023438 -24.957031 58.296875 -24.445312 58.296875 -23.84375 C 58.296875 -23.25 58.023438 -22.71875 57.484375 -22.25 C 55.578125 -20.394531 53.15625 -18.078125 50.21875 -15.296875 C 47.289062 -12.515625 42.820312 -8.789062 36.8125 -4.125 C 30.800781 0.539062 26.601562 2.875 24.21875 2.875 C 19.613281 2.875 17.3125 0.421875 17.3125 -4.484375 C 17.3125 -6.335938 18.03125 -8.28125 19.46875 -10.3125 L 23.3125 -15.609375 C 23.675781 -16.140625 23.859375 -16.453125 23.859375 -16.546875 C 23.859375 -16.640625 23.675781 -16.535156 23.3125 -16.234375 C 12.914062 -7.566406 6.28125 -2.484375 3.40625 -0.984375 C 2.925781 -0.679688 2.328125 -0.53125 1.609375 -0.53125 C -0.359375 -0.53125 -1.34375 -1.429688 -1.34375 -3.234375 C -1.34375 -3.828125 -1.191406 -4.363281 -0.890625 -4.84375 C 3.523438 -8.90625 6.632812 -12.222656 8.4375 -14.796875 C 9.863281 -16.234375 11.367188 -18.238281 12.953125 -20.8125 C 14.546875 -23.382812 15.894531 -25.503906 17 -27.171875 C 18.101562 -28.847656 18.984375 -29.6875 19.640625 -29.6875 Z M 19.640625 -29.6875 "/></g></g></g><g fill="#eb219b" fill-opacity="1"><g transform="translate(219.019457, 105.967432)"><g><path d="M 7.078125 -7.53125 C 7.796875 -7.53125 9.992188 -8.992188 13.671875 -11.921875 C 17.347656 -14.859375 20.863281 -17.789062 24.21875 -20.71875 L 29.15625 -25.109375 C 29.382812 -25.347656 29.5 -25.507812 29.5 -25.59375 C 29.5 -25.6875 29.410156 -25.734375 29.234375 -25.734375 C 26.960938 -25.734375 24.003906 -24.429688 20.359375 -21.828125 C 16.710938 -19.234375 13.554688 -16.484375 10.890625 -13.578125 C 8.234375 -10.679688 6.90625 -8.726562 6.90625 -7.71875 C 6.90625 -7.59375 6.960938 -7.53125 7.078125 -7.53125 Z M 22.59375 -6.1875 C 22.59375 -6.007812 22.785156 -5.921875 23.171875 -5.921875 C 23.566406 -5.921875 25.320312 -6.816406 28.4375 -8.609375 C 36.5625 -13.210938 46.125 -19.367188 57.125 -27.078125 C 57.664062 -26.660156 57.9375 -26.15625 57.9375 -25.5625 C 57.9375 -24.96875 57.632812 -24.398438 57.03125 -23.859375 C 56.4375 -23.316406 55.585938 -22.535156 54.484375 -21.515625 C 53.378906 -20.503906 51.269531 -18.679688 48.15625 -16.046875 C 45.050781 -13.421875 42.15625 -11.03125 39.46875 -8.875 C 32.40625 -3.195312 27.203125 0.148438 23.859375 1.171875 C 22.785156 1.460938 21.617188 1.609375 20.359375 1.609375 C 19.160156 1.429688 18.066406 0.984375 17.078125 0.265625 C 16.097656 -0.453125 15.609375 -1.285156 15.609375 -2.234375 C 15.609375 -3.191406 15.832031 -4.613281 16.28125 -6.5 C 16.726562 -8.382812 16.953125 -9.398438 16.953125 -9.546875 C 16.953125 -9.703125 16.90625 -9.78125 16.8125 -9.78125 C 16.726562 -9.78125 16.566406 -9.660156 16.328125 -9.421875 C 15.546875 -8.578125 14.554688 -7.539062 13.359375 -6.3125 C 12.160156 -5.09375 10.113281 -3.453125 7.21875 -1.390625 C 4.320312 0.671875 1.972656 1.703125 0.171875 1.703125 C -0.117188 1.640625 -0.488281 1.535156 -0.9375 1.390625 C -1.382812 1.242188 -1.96875 0.753906 -2.6875 -0.078125 C -3.40625 -0.921875 -3.765625 -2.117188 -3.765625 -3.671875 C -3.765625 -5.234375 -2.597656 -7.613281 -0.265625 -10.8125 C 2.066406 -14.007812 4.90625 -17.144531 8.25 -20.21875 C 11.601562 -23.300781 15.28125 -25.976562 19.28125 -28.25 C 23.289062 -30.519531 26.789062 -31.65625 29.78125 -31.65625 C 30.851562 -31.65625 31.75 -30.847656 32.46875 -29.234375 C 32.40625 -29.648438 34.347656 -32.351562 38.296875 -37.34375 C 42.242188 -42.34375 46.921875 -47.367188 52.328125 -52.421875 C 57.742188 -57.472656 61.945312 -60 64.9375 -60 C 65.945312 -60 66.453125 -59.519531 66.453125 -58.5625 C 66.453125 -57.070312 65.453125 -55.039062 63.453125 -52.46875 C 61.453125 -49.894531 59.300781 -47.5 57 -45.28125 C 54.695312 -43.070312 51.722656 -40.296875 48.078125 -36.953125 C 39.640625 -29.296875 33.28125 -22.773438 29 -17.390625 C 24.726562 -12.015625 22.59375 -8.28125 22.59375 -6.1875 Z M 22.59375 -6.1875 "/></g></g></g></svg>